HIERARCHY
ROOT Hips
{
  OFFSET 0.000000 0.000000 0.000000
  CHANNELS 6 Xposition Yposition Zposition Zrotation Yrotation Xrotation
  JOINT Spine
  {
    OFFSET -0.026513 1.862746 -0.111518
    CHANNELS 3 Zrotation Yrotation Xrotation
    JOINT Spine1
    {
      OFFSET 0.010195 1.862243 0.040875
      CHANNELS 3 Zrotation Yrotation Xrotation
      JOINT Spine2
      {
        OFFSET 0.021726 1.867876 0.092680
        CHANNELS 3 Zrotation Yrotation Xrotation
        JOINT Neck
        {
          OFFSET -0.019262 1.805121 0.088669
          CHANNELS 3 Zrotation Yrotation Xrotation
          JOINT Head
          {
            OFFSET 0.015918 1.825870 -0.140009
            CHANNELS 3 Zrotation Yrotation Xrotation
            End Site
            {
              OFFSET 0 0 0
            }
          }
        }
        JOINT LeftShoulder
        {
          OFFSET 3.471160 1.513764 0.144911
          CHANNELS 3 Zrotation Yrotation Xrotation
          JOINT LeftArm
          {
            OFFSET 4.780950 -0.000000 0.000000
            CHANNELS 3 Zrotation Yrotation Xrotation
            JOINT LeftForeArm
            {
              OFFSET 3.586150 -0.000000 -0.000000
              CHANNELS 3 Zrotation Yrotation Xrotation
              JOINT LeftHand
              {
                OFFSET 0.659812 -0.000000 0.000000
                CHANNELS 3 Zrotation Yrotation Xrotation
                JOINT LeftHandIndex1
                {
                  OFFSET 0.531957 -0.000000 0.000000
                  CHANNELS 3 Zrotation Yrotation Xrotation
                  End Site
                  {
                    OFFSET 0 0 0
                  }
                }
              }
            }
          }
        }
        JOINT RightShoulder
        {
          OFFSET -3.317249 1.612162 0.351560
          CHANNELS 3 Zrotation Yrotation Xrotation
          JOINT RightArm
          {
            OFFSET -4.489130 -0.000000 0.000000
            CHANNELS 3 Zrotation Yrotation Xrotation
            JOINT RightForeArm
            {
              OFFSET -3.705100 -0.000000 0.000000
              CHANNELS 3 Zrotation Yrotation Xrotation
              JOINT RightHand
              {
                OFFSET -0.449136 -0.000000 0.000000
                CHANNELS 3 Zrotation Yrotation Xrotation
                JOINT RightHandIndex1
                {
                  OFFSET -0.362105 -0.000000 0.000000
                  CHANNELS 3 Zrotation Yrotation Xrotation
                  End Site
                  {
                    OFFSET 0 0 0
                  }
                }
              }
            }
          }
        }
      }
    }
  }
  JOINT LeftUpLeg
  {
    OFFSET 2.505283 -6.883214 0.000000
    CHANNELS 3 Zrotation Yrotation Xrotation
    JOINT LeftLeg
    {
      OFFSET 2.632439 -7.232573 0.000000
      CHANNELS 3 Zrotation Yrotation Xrotation
      JOINT LeftFoot
      {
        OFFSET 0.236910 -0.650903 1.727503
        CHANNELS 3 Zrotation Yrotation Xrotation
        JOINT LeftToeBase
        {
          OFFSET 0.000000 -0.000000 0.925608
          CHANNELS 3 Zrotation Yrotation Xrotation
          End Site
          {
            OFFSET 0 0 0
          }
        }
      }
    }
  }
  JOINT RightUpLeg
  {
    OFFSET -2.545515 -6.993750 0.000000
    CHANNELS 3 Zrotation Yrotation Xrotation
    JOINT RightLeg
    {
      OFFSET -2.660266 -7.309026 0.000000
      CHANNELS 3 Zrotation Yrotation Xrotation
      JOINT RightFoot
      {
        OFFSET -0.229805 -0.631384 2.039586
        CHANNELS 3 Zrotation Yrotation Xrotation
        JOINT RightToeBase
        {
          OFFSET -0.000000 -0.000000 1.070600
          CHANNELS 3 Zrotation Yrotation Xrotation
          End Site
          {
            OFFSET 0 0 0
          }
        }
      }
    }
  }
}
MOTION
Frames: 6
Frame Time: 0.00833333
-0.632747 18.696900 5.637990 -0.527010 -6.057300 3.036120 -14.691300 -3.965330 -4.775470 0.000000 0.000000 20.987900 17.828100 0.000000 -25.581400 0.000000 0.000000 -52.870100 13.741300 12.046900 3.352780 0.000000 0.000000 -0.000000 -15.167200 0.000000 -18.760000 0.000000 0.000000 -7.225520 -2.077560 1.803460 0.670343 0.162847 2.361110 -2.936260 1.241200 1.237620 -3.486070 -1.404550 -2.607220 -12.828600 0.980254 -1.737740 10.891400 0.000000 -0.000000 0.000000 90.692300 -2.526640 -43.483800 0.000000 0.000000 38.142300 -31.555700 0.000000 -13.612600 0.000000 0.000000 7.125020 0.000000 -0.000000 0.000000 -86.796400 -0.339763 -49.139300 0.000000 0.000000 42.898000 -29.598700 0.000000 -11.631400 0.000000 0.000000 7.125020
-0.633205 18.696900 5.637490 -0.534722 -6.044350 3.034760 -14.680400 -3.978940 -4.780740 0.000000 0.000000 20.992900 17.807100 0.000000 -25.594900 0.000000 0.000000 -52.823400 13.751900 12.034600 3.356950 0.000000 0.000000 -0.000000 -15.189800 0.000000 -18.732700 0.000000 0.000000 -7.419370 -2.072820 1.807960 0.634441 0.164438 2.368180 -2.924410 1.241390 1.240680 -3.453650 -1.402200 -2.614130 -12.832500 0.972720 -1.742070 10.898200 -0.000000 -0.000000 0.000000 90.679200 -2.491950 -43.453900 0.000000 0.000000 38.113900 -31.577000 0.000000 -13.566000 0.000000 0.000000 7.125020 -0.000000 -0.000000 0.000000 -86.812700 -0.328013 -49.132100 0.000000 0.000000 42.917800 -29.647200 0.000000 -11.671900 0.000000 0.000000 7.125020
-0.633560 18.696200 5.635930 -0.545871 -6.040660 3.029920 -14.656900 -3.927120 -4.799900 0.000000 0.000000 21.019700 17.729000 0.000000 -25.597300 0.000000 0.000000 -52.783800 13.766400 12.032200 3.362190 0.000000 0.000000 0.000000 -15.157700 0.000000 -18.761600 0.000000 0.000000 -7.069910 -2.071340 1.799700 0.623476 0.185243 2.358170 -2.911620 1.262990 1.235720 -3.434660 -1.420920 -2.608010 -12.829300 0.970637 -1.737590 10.892700 -0.000000 -0.000000 0.000000 90.701900 -2.470470 -43.453900 0.000000 0.000000 38.151500 -31.556100 0.000000 -13.561000 0.000000 0.000000 7.125020 -0.000000 -0.000000 0.000000 -86.804500 -0.287648 -49.124400 0.000000 0.000000 42.953900 -29.669900 0.000000 -11.706800 0.000000 0.000000 7.125020
-0.633426 18.695300 5.633630 -0.549749 -6.040840 3.024410 -14.648800 -3.913390 -4.811170 0.000000 0.000000 21.036500 17.712200 0.000000 -25.586900 0.000000 0.000000 -52.791500 13.771600 12.033300 3.364150 0.000000 0.000000 0.000000 -15.096100 0.000000 -18.807100 0.000000 0.000000 -6.497930 -2.068840 1.788410 0.635055 0.194668 2.343190 -2.910480 1.271500 1.228350 -3.439740 -1.428200 -2.589610 -12.812200 0.979278 -1.725740 10.880800 0.000000 -0.000000 0.000000 90.699700 -2.441360 -43.466300 0.000000 0.000000 38.187000 -31.617800 0.000000 -13.490000 0.000000 0.000000 7.125020 0.000000 -0.000000 0.000000 -86.791500 -0.287807 -49.136600 0.000000 0.000000 42.996500 -29.603600 0.000000 -11.728800 0.000000 0.000000 7.125020
-0.632618 18.695200 5.631780 -0.538924 -6.012770 3.013410 -14.661500 -3.918970 -4.816760 0.000000 0.000000 21.048500 17.736100 0.000000 -25.543900 0.000000 0.000000 -52.846000 13.761200 12.005900 3.376620 0.000000 0.000000 -0.000000 -15.052900 0.000000 -18.830200 0.000000 0.000000 -6.277220 -2.053170 1.776090 0.644745 0.174859 2.326280 -2.914100 1.242660 1.219260 -3.446770 -1.406940 -2.578980 -12.800600 0.986058 -1.719480 10.874900 0.000000 -0.000000 0.000000 90.655100 -2.403220 -43.472200 0.000000 0.000000 38.182300 -31.697000 0.000000 -13.390900 0.000000 0.000000 7.125020 0.000000 -0.000000 0.000000 -86.822500 -0.295281 -49.157100 0.000000 0.000000 43.020800 -29.579300 0.000000 -11.751000 0.000000 0.000000 7.125020
-0.631633 18.695200 5.630440 -0.507881 -5.997310 2.996450 -14.697700 -3.915170 -4.811760 0.000000 0.000000 21.053800 17.733500 0.000000 -25.544500 0.000000 0.000000 -52.863700 13.725500 11.990500 3.391640 0.000000 0.000000 -0.000000 -15.038500 0.000000 -18.836100 0.000000 0.000000 -6.286380 -2.048580 1.778700 0.644474 0.143108 2.328940 -2.911440 1.207430 1.219900 -3.442390 -1.382830 -2.579190 -12.792900 0.988275 -1.720180 10.873000 0.000000 0.000000 0.000000 90.632900 -2.412570 -43.467000 0.000000 0.000000 38.173500 -31.665200 0.000000 -13.366100 0.000000 0.000000 7.125020 0.000000 0.000000 0.000000 -86.857900 -0.315812 -49.153600 0.000000 0.000000 43.011900 -29.639600 0.000000 -11.796500 0.000000 0.000000 7.125020
